<?xml version="1.0"?>
<svg xmlns="http://www.w3.org/2000/svg" height="512px" viewBox="0 0 480 480" width="512px" class=""><g><g><path d="m8 304h8v168c0 4.425781 3.585938 8 8 8h432c4.414062 0 8-3.574219 8-8v-168h8c4.414062 0 8-3.574219 8-8v-32c0-4.425781-3.585938-8-8-8h-16.207031c5.078125-6.703125 8.207031-14.960938 8.207031-24v-48c0-22.054688-17.945312-40-40-40h-4.320312c7.632812-8.503906 12.320312-19.695312 12.320312-32 0-26.472656-21.527344-48-48-48s-48 21.527344-48 48c0 12.304688 4.6875 23.496094 12.320312 32h-4.320312c-19.3125 0-35.472656 13.769531-39.191406 32h-72.808594c-3.273438 0-6.207031 1.992188-7.433594 5.03125l-29.980468 74.96875h-50.585938v-48h24c2.121094 0 4.160156-.839844 5.65625-2.34375l72-72c3.128906-3.128906 3.128906-8.183594 0-11.3125l-24-24c-3.128906-3.128906-8.183594-3.128906-11.3125 0l-53.65625 53.65625h-33.007812c7.632812-8.503906 12.320312-19.695312 12.320312-32 0-26.472656-21.527344-48-48-48s-48 21.527344-48 48c0 12.304688 4.6875 23.496094 12.320312 32h-12.320312c-22.054688 0-40 17.945312-40 40v40c0 9.039062 3.128906 17.296875 8.207031 24h-.207031c-4.414062 0-8 3.574219-8 8v32c0 4.425781 3.585938 8 8 8zm440 160h-416v-160h416zm16-176h-448v-16h448zm-80-208c17.648438 0 32 14.351562 32 32s-14.351562 32-32 32c-5.855469 0-11.273438-1.695312-16-4.449219 9.519531-5.550781 16-15.757812 16-27.550781h-16c0 7.382812-5.054688 13.558594-11.878906 15.390625-2.546875-4.582031-4.121094-9.78125-4.121094-15.390625 0-17.648438 14.351562-32 32-32zm-40 80h80c13.230469 0 24 10.769531 24 24v48c0 13.230469-10.769531 24-24 24h-48v-24h40c4.414062 0 8-3.574219 8-8v-32h-16v24h-40c-4.414062 0-8 3.574219-8 8v32h-28.183594l27.617188-69.03125c.980468-2.464844.679687-5.257812-.808594-7.457031s-3.96875-3.511719-6.625-3.511719h-30.527344c3.3125-9.289062 12.113282-16 22.527344-16zm-106.585938 32h102.769532l-25.597656 64h-102.769532zm-181.414062-72c0-17.648438 14.351562-32 32-32s32 14.351562 32 32-14.351562 32-32 32-32-14.351562-32-32zm-40 112v-40c0-13.230469 10.769531-24 24-24h120c2.121094 0 4.160156-.839844 5.65625-2.34375l50.34375-50.34375 12.6875 12.6875-64 64h-28.6875c-4.414062 0-8 3.574219-8 8v56h-16v-32c0-4.425781-3.585938-8-8-8h-48v-16h-16v24c0 4.425781 3.585938 8 8 8h48v24h-56c-13.230469 0-24-10.769531-24-24zm0 0" data-original="#FFFFFF" class="active-path" data-old_color="#ffffff" fill="#FFFFFF"/><path d="m48 320h16v16h-16zm0 0" data-original="#FFFFFF" class="active-path" data-old_color="#ffffff" fill="#FFFFFF"/><path d="m80 320h16v16h-16zm0 0" data-original="#FFFFFF" class="active-path" data-old_color="#ffffff" fill="#FFFFFF"/><path d="m112 320h16v16h-16zm0 0" data-original="#FFFFFF" class="active-path" data-old_color="#ffffff" fill="#FFFFFF"/><path d="m48 352h16v16h-16zm0 0" data-original="#FFFFFF" class="active-path" data-old_color="#ffffff" fill="#FFFFFF"/><path d="m80 352h16v16h-16zm0 0" data-original="#FFFFFF" class="active-path" data-old_color="#ffffff" fill="#FFFFFF"/><path d="m48 384h16v16h-16zm0 0" data-original="#FFFFFF" class="active-path" data-old_color="#ffffff" fill="#FFFFFF"/><path d="m164.9375 111.390625c.992188.417969 2.03125.609375 3.0625.609375 2.078125 0 4.128906-.816406 5.65625-2.34375l29.65625-29.65625h68.6875c4.414062 0 8-3.574219 8-8v-64c0-4.425781-3.585938-8-8-8h-128c-4.414062 0-8 3.574219-8 8v64c0 4.425781 3.585938 8 8 8h16v24c0 3.230469 1.953125 6.160156 4.9375 7.390625zm-12.9375-47.390625v-48h112v48h-64c-2.121094 0-4.160156.839844-5.65625 2.34375l-18.34375 18.34375v-12.6875c0-4.425781-3.585938-8-8-8zm0 0" data-original="#FFFFFF" class="active-path" data-old_color="#ffffff" fill="#FFFFFF"/><path d="m168 32h16v16h-16zm0 0" data-original="#FFFFFF" class="active-path" data-old_color="#ffffff" fill="#FFFFFF"/><path d="m200 32h16v16h-16zm0 0" data-original="#FFFFFF" class="active-path" data-old_color="#ffffff" fill="#FFFFFF"/><path d="m232 32h16v16h-16zm0 0" data-original="#FFFFFF" class="active-path" data-old_color="#ffffff" fill="#FFFFFF"/><path d="m272 216h16v16h-16zm0 0" data-original="#FFFFFF" class="active-path" data-old_color="#ffffff" fill="#FFFFFF"/></g></g> </svg>
